<?xml version="1.0" encoding="UTF-8" standalone="no"?> <!-- Created with Vectornator for iOS (http://vectornator.io/) --><!DOCTYPE svg PUBLIC "-//W3C//DTD SVG 1.1//EN" "http://www.w3.org/Graphics/SVG/1.1/DTD/svg11.dtd">
<svg height="100%" style="fill-rule:nonzero;clip-rule:evenodd;stroke-linecap:round;stroke-linejoin:round;" version="1.1" viewBox="0 0 1080 1080" width="100%" xml:space="preserve" xmlns="http://www.w3.org/2000/svg" xmlns:vectornator="http://vectornator.io" xmlns:xlink="http://www.w3.org/1999/xlink">
<metadata>
<vectornator:setting key="IsTimeLapseWatermarkDisabled" value="false"/>
<vectornator:setting key="UndoHistoryDisabled" value="true"/>
<vectornator:setting key="VNDimensionsVisible" value="true"/>
<vectornator:setting key="VNSnapToGuides" value="true"/>
<vectornator:setting key="WDCMYKEnabledKey" value="false"/>
<vectornator:setting key="WDDisplayWhiteBackground" value="false"/>
<vectornator:setting key="WDDynamicGuides" value="false"/>
<vectornator:setting key="WDGuidesVisible" value="true"/>
<vectornator:setting key="WDIsolateActiveLayer" value="false"/>
<vectornator:setting key="WDOutlineMode" value="false"/>
<vectornator:setting key="WDRulersVisible" value="true"/>
<vectornator:setting key="WDSnapToEdges" value="true"/>
<vectornator:setting key="WDSnapToGrid" value="true"/>
<vectornator:setting key="WDSnapToPoints" value="true"/>
<vectornator:setting key="WDUnits" value="Pixels"/>
</metadata>
<defs/>
<g id="Layer 1" vectornator:layerName="Layer 1">
<path d="M-1.90572-3.38805L1080-3.38805L1080 1079.98L-1.90572 1079.98L-1.90572-3.38805Z" fill="#0d121d" opacity="1"/>
<g opacity="1">
<g opacity="1">
<path d="M178.425 583.268C164.623 583.268 152.839 578.385 143.074 568.62C133.308 558.854 128.425 547.07 128.425 533.268L128.425 433.268L153.425 433.268L153.425 483.268L178.425 483.268L178.425 508.268L153.425 508.268L153.425 533.268C153.425 540.169 155.867 546.061 160.75 550.944C165.632 555.827 171.524 558.268 178.425 558.268L178.425 583.268Z" fill="#95ff6a" opacity="1"/>
<path d="M192.39 583.268L192.39 533.268C192.39 519.499 197.273 507.731 207.039 497.965C216.804 488.167 228.588 483.268 242.39 483.268C256.16 483.268 267.927 488.167 277.693 497.965C287.491 507.731 292.39 519.499 292.39 533.268L267.39 533.268C267.39 526.4 264.932 520.524 260.017 515.641C255.134 510.726 249.259 508.268 242.39 508.268C235.489 508.268 229.597 510.726 224.714 515.641C219.832 520.524 217.39 526.4 217.39 533.268L217.39 583.268L192.39 583.268Z" fill="#95ff6a" opacity="1"/>
<path d="M356.355 583.268C342.553 583.268 330.769 578.385 321.003 568.62C311.238 558.854 306.355 547.07 306.355 533.268C306.355 519.499 311.238 507.731 321.003 497.965C330.769 488.167 342.553 483.268 356.355 483.268C370.125 483.268 381.892 488.167 391.658 497.965C401.456 507.731 406.355 519.499 406.355 533.268L406.355 583.268L381.355 583.268L381.355 533.268C381.355 526.4 378.897 520.524 373.982 515.641C369.099 510.726 363.223 508.268 356.355 508.268C349.454 508.268 343.562 510.726 338.679 515.641C333.796 520.524 331.355 526.4 331.355 533.268C331.355 540.169 333.796 546.061 338.679 550.944C343.562 555.827 349.454 558.268 356.355 558.268L356.355 583.268Z" fill="#95ff6a" opacity="1"/>
<path d="M420.32 583.268L420.32 533.268C420.32 519.499 425.203 507.731 434.968 497.965C444.734 488.167 456.518 483.268 470.32 483.268L470.32 508.268C463.419 508.268 457.527 510.726 452.644 515.641C447.761 520.524 445.32 526.4 445.32 533.268L445.32 583.268L420.32 583.268ZM430.281 473.307L430.281 443.278L460.31 443.278L460.31 473.307L430.281 473.307Z" fill="#95ff6a" opacity="1"/>
<path d="M484.285 583.268L484.285 533.268C484.285 519.499 489.167 507.731 498.933 497.965C508.699 488.167 520.483 483.268 534.285 483.268C548.054 483.268 559.822 488.167 569.587 497.965C579.386 507.731 584.285 519.499 584.285 533.268L584.285 583.268L559.285 583.268L559.285 533.268C559.285 526.4 556.827 520.524 551.912 515.641C547.029 510.726 541.153 508.268 534.285 508.268C527.384 508.268 521.492 510.726 516.609 515.641C511.726 520.524 509.285 526.4 509.285 533.268L509.285 583.268L484.285 583.268Z" fill="#95ff6a" opacity="1"/>
</g>
<g opacity="1">
<path d="M647.247 586.599C633.444 586.599 621.661 581.717 611.895 571.951C602.129 562.185 597.247 550.402 597.247 536.599C597.247 522.83 602.129 511.062 611.895 501.297C621.661 491.499 633.444 486.599 647.247 486.599C661.016 486.599 672.784 491.499 682.549 501.297C692.347 511.062 697.247 522.83 697.247 536.599L672.247 536.599C672.247 529.731 669.789 523.855 664.873 518.973C659.991 514.057 654.115 511.599 647.247 511.599C640.345 511.599 634.454 514.057 629.571 518.973C624.688 523.855 622.247 529.731 622.247 536.599C622.247 543.501 624.688 549.392 629.571 554.275C634.454 559.158 640.345 561.599 647.247 561.599L647.247 586.599Z" fill="#ffffff" opacity="1"/>
<path d="M711.211 586.599L711.211 536.599C711.211 522.83 716.094 511.062 725.86 501.297C735.625 491.499 747.409 486.599 761.211 486.599C774.981 486.599 786.748 491.499 796.514 501.297C806.312 511.062 811.211 522.83 811.211 536.599L786.211 536.599C786.211 529.731 783.754 523.855 778.838 518.973C773.956 514.057 768.08 511.599 761.211 511.599C754.31 511.599 748.418 514.057 743.536 518.973C738.653 523.855 736.211 529.731 736.211 536.599L736.211 586.599L711.211 586.599Z" fill="#ffffff" opacity="1"/>
<path d="M825.176 586.599L825.176 536.599C825.176 522.83 830.059 511.062 839.825 501.297C849.59 491.499 861.374 486.599 875.176 486.599C888.946 486.599 900.713 491.499 910.479 501.297C920.277 511.062 925.176 522.83 925.176 536.599L900.176 536.599C900.176 529.731 897.719 523.855 892.803 518.973C887.92 514.057 882.045 511.599 875.176 511.599C868.275 511.599 862.383 514.057 857.5 518.973C852.618 523.855 850.176 529.731 850.176 536.599L850.176 586.599L825.176 586.599Z" fill="#ffffff" opacity="1"/>
</g>
</g>
</g>
</svg>
